# xmcd
#
# Track frame offsets:
#	150
#	36480
#	41780
#	60830
#	82560
#	98987
#	105292
#	124397
#	175855
#	196255
#	209455
#	244395
#	251572
#	264002
#	281647
#
# Disc length: 3898 seconds
#
# Revision: 1
# Processed by: cddbd v1.5.1PL0 Copyright (c) Steve Scherf et al.
# Submitted via: CDex 1.50Beta5
#
DISCID=ca0f380f
DTITLE=秋月こお - 富士見交響楽団1 寒冷前線コンダクター
DYEAR=1900
DGENRE=
TTITLE0=練習場(桐ノ院登場)
TTITLE1=練習場(練習後)
TTITLE2=喫茶店モーツァルト
TTITLE3=練習スケッチ
TTITLE4=守村の部屋(おちこみ)
TTITLE5=守村の部屋(数日後)
TTITLE6=練習場(やめます!)
TTITLE7=桐ノ院の部屋(ここで、いま)
TTITLE8=桐ノ院の部屋(after)
TTITLE9=桐ノ院の部屋(オフェリア)
TTITLE10=桐ノ院の部屋(一日半後)
TTITLE11=練習場
TTITLE12=はなや(川島さんと)
TTITLE13=はなや(酔って)
TTITLE14=街路
EXTD=
EXTT0=
EXTT1=
EXTT2=
EXTT3=
EXTT4=
EXTT5=
EXTT6=
EXTT7=
EXTT8=
EXTT9=
EXTT10=
EXTT11=
EXTT12=
EXTT13=
EXTT14=
PLAYORDER=
